<svg xmlns:dc="http://purl.org/dc/elements/1.1/" xmlns:cc="http://creativecommons.org/ns#" xmlns:rdf="http://www.w3.org/1999/02/22-rdf-syntax-ns#" xmlns:svg="http://www.w3.org/2000/svg" xmlns="http://www.w3.org/2000/svg" xmlns:sodipodi="http://sodipodi.sourceforge.net/DTD/sodipodi-0.dtd" xmlns:inkscape="http://www.inkscape.org/namespaces/inkscape" version="1.1" x="0px" y="0px" viewBox="0 0 100 125"><g transform="translate(0,-952.36218)"><g transform="translate(5,959.32871)"><path d="M 1.984252,0.03543307 C 0.88582677,0.03543307 0,0.9212599 0,2.0196852 L 0,84.04725 c 0,1.098425 0.88582677,1.984252 1.984252,1.984252 l 86.031496,0 C 89.114173,86.031502 90,85.145675 90,84.04725 90,82.913391 89.114173,82.027564 88.015748,82.027564 l -84.011811,0 0,-80.0078788 c 0,-1.0984253 -0.8858268,-1.98425213 -2.019685,-1.98425213 z m 48.011811,27.99212793 0,44.007877 8.007874,0 0,-44.007877 z m -18,5.988189 0,38.019688 8.007874,0 0,-38.019688 z m -18,6.023623 0,31.996065 8.007874,0 0,-31.996065 z m 54,5.988189 0,26.007876 8.007874,0 0,-26.007876 z" style="" fill="#000000" fill-opacity="1" fill-rule="nonzero" stroke="none"/></g></g><text x="0" y="115" fill="#000000" font-size="5px" font-weight="bold" font-family="'Helvetica Neue', Helvetica, Arial-Unicode, Arial, Sans-serif">Created by Barracuda</text><text x="0" y="120" fill="#000000" font-size="5px" font-weight="bold" font-family="'Helvetica Neue', Helvetica, Arial-Unicode, Arial, Sans-serif">from the Noun Project</text></svg>