<svg xmlns="http://www.w3.org/2000/svg" xmlns:xlink="http://www.w3.org/1999/xlink" version="1.1" x="0px" y="0px" viewBox="0 0 512 640" enable-background="new 0 0 512 512" xml:space="preserve"><path d="M278.7,18.5l43.6,144.8c3.2,9.8,12.4,16.5,22.7,16.5h141.1c23.1,0,32.7,29.6,14,43.2L386,305.9c-8.4,6.1-11.9,16.9-8.7,26.7  l55.2,146c7.1,22-18,40.3-36.7,26.7L267.6,413c-8.4-6.1-19.7-6.1-28.1,0l-123.4,92.4c-18.7,13.6-43.9-4.7-36.7-26.7l55.2-146  c3.2-9.8-0.3-20.6-8.7-26.7L11.9,223c-18.7-13.6-9.1-43.2,14-43.2H167c10.3,0,19.5-6.7,22.7-16.5l43.6-144.8  C240.4-3.5,271.6-3.5,278.7,18.5z"/><text x="0" y="527" fill="#000000" font-size="5px" font-weight="bold" font-family="'Helvetica Neue', Helvetica, Arial-Unicode, Arial, Sans-serif">Created by ProSymbols</text><text x="0" y="532" fill="#000000" font-size="5px" font-weight="bold" font-family="'Helvetica Neue', Helvetica, Arial-Unicode, Arial, Sans-serif">from the Noun Project</text></svg>